George Baker Selection
"Little Green Bag"



1970 Colossus Records CS-1002
original US LP, promo labels
matrix/stamper info:
CS-1008 A1 Bell Sound sf
CS-1009 B1 Bell Sound sf

Mastered at Bell Sound studios by Sam Feldman

tracks:
A1 Little Green Bag 4:20
A2 Winter Time 2:07
A3 Funny Girl 3:00
A4 The Prisoner 4:48
A5 Road Of Peace 2:56
A6 Fly 2:50
B1 Dear Ann 3:04
B2 Impressions 3:30
B3 I Wanna Love You 2:50
B4 Have Another Drink 3:22
B5 I'll Be Your Baby Tonight 4:09
B6 Goodbye 4:00



musicians:
Johannes Bouwens (George Baker), Jan Hop, Jacobus Anthonius Greuter, Jan Gerbrand Visser, George The

Art direction: David Krieger
Photography: Joel Brodsky
Art: Frederic Marvin

promo video:



vinyl LP transfer at 24-bit 96khz

transfer info:
Nitty Gritty Record Master
Music Hall MMF 9.1
Grado Master Reference 1 cartridge
Graham Slee Era Gold Reflex phono preamp
Mytek Stereo192 ADC (analog to digital converter)
Blue Jean LC-1 interconnects, KAB super record grip Mk2
software used: Soundforge 9.0, ClickRepair 3.0.1 (in manual mode), Flac frontend 1.7.1
*note: title track is in mono
transferred December 2009
minor cleanup 2011

flac fingerprints:
A1 - Little Green Bag.flac:7cceaac5c9c2676ddf8e5679dd9b897a
A2 - Winter Time .flac:6273cf2d336b6a6b5dec71289c34113b
A3 - Funny Girl.flac:bf944396ef2ca3fae28118c2c87566f1
A4 - The Prisoner.flac:206028f1c59b9cb397d8055f681fdf6a
A5 - Road Of Peace.flac:06c58f5bc7fa115178d3d7282135b0a9
A6 - Fly.flac:729e4c50ed3aff7f37cb8bd02e80a11c
B1 - Dear Ann.flac:f3aa174bacf0fd2c508a6474c43d7190
B2 - Impressions.flac:4461c5fd4fc7bf901a488e0ef738bc6d
B3 - I Wanna Love You.flac:ef9c5742fcd81b938ea9710b8d6e09d4
B4 - Have Another Drink.flac:c0dbe704e6f2612972a17feb61a01ef2
B5 - I'll Be Your Baby Tonight.flac:af60209e2b278f618226cc043e483646
B6 - Goodbye.flac:3b9dc4b5ed070a752e85279f9d19f5c7

--------------------------------------------------------------------------------
Analyzed: George Baker Selection / Little Green Bag
--------------------------------------------------------------------------------

DR Peak RMS Duration Track
--------------------------------------------------------------------------------
DR13 -0.18 dB -14.34 dB 4:30 01-Little Green Bag
DR10 -2.18 dB -14.99 dB 2:11 02-Winter Time
DR13 -0.61 dB -15.92 dB 3:03 03-Funny Girl
DR11 -1.30 dB -14.73 dB 3:55 04-The Prisoner
DR11 -1.26 dB -14.82 dB 2:59 05-Road Of Peace
DR12 -0.20 dB -14.87 dB 4:09 06-Fly
DR11 -0.19 dB -14.22 dB 3:04 07-Dear Ann
DR11 -1.18 dB -15.44 dB 3:31 08-Impressions
DR13 -0.52 dB -16.81 dB 2:50 09-I Wanna Love You
DR12 -2.18 dB -16.54 dB 3:24 10-Have Another Drink
DR12 -1.77 dB -16.63 dB 4:12 11-I'll Be Your Baby Tonight
DR14 -0.09 dB -17.80 dB 3:59 12-Goodbye
--------------------------------------------------------------------------------

Number of tracks: 12
Maximum peak difference (-0.09 dB - -2.18 dB): 2.09 dB

========================================================

Euro-pop classic from 1970... Some of it is very Beatle-esque.